<?xml version="1.0" encoding="UTF-8"?>
<svg version="1.1" xmlns="http://www.w3.org/2000/svg" width="64" height="64">
<path d="M0 0 C3.38474675 1.6455858 5.82044807 3.97814272 8.4296875 6.62792969 C8.97751389 7.17192917 9.52534027 7.71592865 10.08976746 8.27641296 C11.24176967 9.42569987 12.38876257 10.58002715 13.53100586 11.73901367 C15.28275255 13.51221529 17.05485846 15.26302898 18.83007812 17.01269531 C19.94789973 18.13315945 21.06448026 19.25486341 22.1796875 20.37792969 C22.71084671 20.90099197 23.24200592 21.42405426 23.78926086 21.96296692 C26.76694314 25.01815963 27.47265625 25.74605806 27.47265625 30.20214844 C22.59146994 29.76749591 20.53540116 27.73419732 17.171875 24.29199219 C16.69063675 23.80509415 16.2093985 23.31819611 15.71357727 22.81654358 C14.18608604 21.26674936 12.67312877 19.70360652 11.16015625 18.13964844 C10.12397715 17.0833965 9.08687715 16.02804711 8.04882812 14.97363281 C5.5126873 12.39350623 2.98939166 9.80122324 0.47265625 7.20214844 C-3.27474717 8.75605517 -5.59453852 11.06665225 -8.40625 13.95605469 C-9.32728516 14.89255859 -10.24832031 15.8290625 -11.19726562 16.79394531 C-12.1620485 17.7836047 -13.12623509 18.77384571 -14.08984375 19.76464844 C-15.98128277 21.70926935 -17.87905362 23.64686621 -19.78125 25.58105469 C-20.61986572 26.44287354 -21.45848145 27.30469238 -22.32250977 28.19262695 C-24.52734375 30.20214844 -24.52734375 30.20214844 -27.52734375 31.20214844 C-28.18734375 29.88214844 -28.84734375 28.56214844 -29.52734375 27.20214844 C-25.7928972 23.31949448 -22.0392394 19.45688894 -18.26635742 15.61157227 C-16.98548052 14.30050361 -15.7100378 12.98410308 -14.44018555 11.66235352 C-12.61475543 9.76421982 -10.77069497 7.88606572 -8.921875 6.01074219 C-8.07469658 5.1171122 -8.07469658 5.1171122 -7.21040344 4.20542908 C-3.26981498 0.26153466 -3.26981498 0.26153466 0 0 Z " fill="#FFFFFF" transform="translate(32.52734375,3.7978515625)"/>
<path d="M0 0 C1.32 0 2.64 0 4 0 C4.04898437 0.96421875 4.09796875 1.9284375 4.1484375 2.921875 C4.22320313 4.18515625 4.29796875 5.4484375 4.375 6.75 C4.44460937 8.00296875 4.51421875 9.2559375 4.5859375 10.546875 C4.95502285 13.62490751 5.21666464 15.50090419 7 18 C11.85942152 19.61980717 16.84928405 19.18452269 21.9375 19.1875 C23.58395508 19.20586914 23.58395508 19.20586914 25.26367188 19.22460938 C26.32005859 19.22654297 27.37644531 19.22847656 28.46484375 19.23046875 C29.430271 19.23457764 30.39569824 19.23868652 31.39038086 19.24291992 C34.12585327 18.98828478 35.73729305 18.54633863 38 17 C39.15570704 13.53287889 39.32835293 10.4585044 39.5625 6.8125 C39.64628906 5.54019531 39.73007812 4.26789062 39.81640625 2.95703125 C39.90728516 1.49330078 39.90728516 1.49330078 40 0 C41.32 0 42.64 0 44 0 C44.13530844 3.06398451 44.2342407 6.12197126 44.3125 9.1875 C44.35439453 10.05181641 44.39628906 10.91613281 44.43945312 11.80664062 C44.45556641 12.64775391 44.47167969 13.48886719 44.48828125 14.35546875 C44.51446533 15.12528076 44.54064941 15.89509277 44.56762695 16.68823242 C43.67542235 20.32190356 41.94085729 21.75868707 39 24 C36.20715648 24.50061116 34.03372951 24.70418481 31.25 24.6640625 C30.14640137 24.67123795 30.14640137 24.67123795 29.02050781 24.67855835 C27.47068127 24.6819488 25.92078239 24.67280592 24.37109375 24.65185547 C22.00618214 24.62507002 19.64601498 24.65162417 17.28125 24.68359375 C15.77082292 24.68028949 14.26039877 24.6738829 12.75 24.6640625 C11.6966748 24.67924423 11.6966748 24.67924423 10.62207031 24.69473267 C6.83320494 24.60482524 5.08954639 24.06824591 2.04614258 21.7487793 C-0.08622738 18.8841625 -0.60677644 17.83922726 -0.48828125 14.35546875 C-0.47216797 13.51435547 -0.45605469 12.67324219 -0.43945312 11.80664062 C-0.39755859 10.94232422 -0.35566406 10.07800781 -0.3125 9.1875 C-0.28994141 8.30384766 -0.26738281 7.42019531 -0.24414062 6.50976562 C-0.18547428 4.3391109 -0.09579979 2.1693331 0 0 Z " fill="#FFFFFF" transform="translate(10,36)"/>
</svg>
